<?xml version="1.0" encoding="UTF-8"?><svg id="_레이어_2" xmlns="http://www.w3.org/2000/svg" viewBox="0 0 450.97 63.98"><defs><style>.cls-1{fill:#e6e6e6;}.cls-2{fill:#fff;}.cls-3{fill:#989899;}.cls-4{fill:#666;}.cls-5{fill:#b2b2b4;}.cls-6{fill:#cccccb;}.cls-7{fill:gray;}.cls-8{fill:#4d4d4c;}</style></defs><g id="_레이어_1-2"><path class="cls-6" d="m123.2,29.78c.45-3.16,1.69-6.16,3.6-8.73l-10.15-10.15c-4.47,5.12-7.35,11.67-7.84,18.88h14.39Z"/><path class="cls-5" d="m126.83,42.9c-1.97-2.5-3.2-5.58-3.62-8.74h-14.4c.48,7.23,3.36,13.79,7.84,18.92l10.18-10.18Z"/><path class="cls-1" d="m129.88,17.95c2.6-2.04,5.63-3.25,8.75-3.64V0c-7.21.48-13.77,3.34-18.89,7.81l10.14,10.14Z"/><path class="cls-2" d="m143.01,14.3c3.18.45,6.21,1.71,8.78,3.64l10.1-10.1C156.77,3.37,150.22.49,143.01,0v14.3Z"/><path class="cls-7" d="m151.77,46.02c-2.48,1.93-5.48,3.22-8.76,3.61v14.34c7.21-.49,13.76-3.36,18.88-7.84l-10.12-10.12Z"/><path class="cls-8" d="m154.87,21.04c1.94,2.56,3.23,5.52,3.62,8.74h14.29c-.49-7.19-3.35-13.73-7.81-18.85l-10.1,10.1Z"/><path class="cls-3" d="m138.63,49.63c-3.26-.41-6.25-1.7-8.72-3.63l-10.17,10.17c5.13,4.47,11.68,7.33,18.89,7.81v-14.35Z"/><path class="cls-4" d="m158.5,34.16c-.4,3.29-1.7,6.3-3.64,8.78l10.11,10.11c4.47-5.13,7.33-11.68,7.81-18.89h-14.28Z"/><path class="cls-2" d="m15.71,62.21H0V1.77h25.01c6.79,0,11.98,1.76,15.59,5.29,3.61,3.53,5.41,8.5,5.41,14.91s-1.8,11.38-5.41,14.91c-3.61,3.53-8.81,5.29-15.59,5.29h-9.3v20.04Zm0-32.7h5.21c5.77,0,8.66-2.51,8.66-7.54s-2.89-7.54-8.66-7.54h-5.21v15.07Z"/><path class="cls-2" d="m104.61,62.21h-19.56l-14.99-23.25v23.25h-15.71V1.77h24.45c3.37,0,6.3.5,8.82,1.48,2.51.99,4.58,2.34,6.21,4.05,1.63,1.71,2.86,3.69,3.69,5.93.83,2.24,1.24,4.65,1.24,7.21,0,4.6-1.11,8.32-3.33,11.18-2.22,2.86-5.49,4.8-9.82,5.81l19,24.77Zm-34.55-33.43h2.97c3.1,0,5.48-.64,7.13-1.92,1.66-1.28,2.48-3.13,2.48-5.53s-.83-4.25-2.48-5.53c-1.66-1.28-4.04-1.92-7.13-1.92h-2.97v14.91Z"/><path class="cls-2" d="m213.62,28.38h31.18c0,3.21-.13,6.12-.4,8.74-.27,2.62-.8,5.05-1.6,7.29-1.12,3.15-2.64,5.95-4.57,8.38-1.92,2.43-4.18,4.46-6.77,6.09-2.59,1.63-5.44,2.87-8.54,3.73-3.1.85-6.36,1.28-9.78,1.28-4.7,0-8.99-.78-12.87-2.33-3.88-1.55-7.2-3.73-9.98-6.53-2.78-2.81-4.94-6.17-6.49-10.1s-2.32-8.27-2.32-13.03.76-9.02,2.28-12.95c1.52-3.93,3.69-7.28,6.49-10.06,2.8-2.78,6.18-4.94,10.14-6.49,3.96-1.55,8.36-2.32,13.23-2.32,6.3,0,11.84,1.36,16.59,4.09s8.52,6.95,11.3,12.67l-14.91,6.17c-1.39-3.31-3.2-5.69-5.41-7.13-2.22-1.44-4.74-2.16-7.57-2.16-2.35,0-4.49.44-6.41,1.32s-3.57,2.14-4.93,3.77c-1.36,1.63-2.43,3.59-3.21,5.89-.78,2.3-1.16,4.86-1.16,7.7,0,2.56.33,4.94,1,7.13.67,2.19,1.67,4.09,3.01,5.69,1.34,1.6,2.99,2.85,4.97,3.73,1.97.88,4.27,1.32,6.89,1.32,1.55,0,3.05-.17,4.49-.52,1.44-.35,2.74-.91,3.89-1.68,1.15-.77,2.1-1.78,2.85-3.01.75-1.23,1.25-2.73,1.52-4.49h-12.91v-12.18Z"/><path class="cls-2" d="m305,62.21h-19.56l-14.99-23.25v23.25h-15.71V1.77h24.45c3.37,0,6.31.5,8.82,1.48,2.51.99,4.58,2.34,6.21,4.05,1.63,1.71,2.86,3.69,3.69,5.93.83,2.24,1.24,4.65,1.24,7.21,0,4.6-1.11,8.32-3.33,11.18-2.22,2.86-5.49,4.8-9.82,5.81l19,24.77Zm-34.55-33.43h2.97c3.1,0,5.48-.64,7.13-1.92,1.66-1.28,2.48-3.13,2.48-5.53s-.83-4.25-2.48-5.53c-1.66-1.28-4.04-1.92-7.13-1.92h-2.97v14.91Z"/><path class="cls-2" d="m345.96,15.08h-18.68v10.1h17.63v13.31h-17.63v10.42h18.68v13.31h-34.39V1.77h34.39v13.31Z"/><path class="cls-2" d="m390.45,17.24c-1.71-1.39-3.42-2.42-5.13-3.09-1.71-.67-3.37-1-4.97-1-2.03,0-3.69.48-4.97,1.44s-1.92,2.22-1.92,3.77c0,1.07.32,1.95.96,2.65.64.7,1.48,1.3,2.53,1.8,1.04.51,2.22.95,3.53,1.32,1.31.38,2.61.78,3.89,1.2,5.13,1.71,8.88,4,11.26,6.85,2.38,2.86,3.57,6.59,3.57,11.18,0,3.1-.52,5.91-1.56,8.42-1.04,2.51-2.57,4.66-4.57,6.45-2,1.79-4.46,3.18-7.38,4.17-2.91.99-6.21,1.48-9.9,1.48-7.64,0-14.72-2.27-21.24-6.81l6.73-12.67c2.35,2.08,4.67,3.63,6.97,4.65,2.3,1.02,4.57,1.52,6.81,1.52,2.56,0,4.47-.59,5.73-1.76,1.26-1.17,1.88-2.51,1.88-4.01,0-.91-.16-1.7-.48-2.36-.32-.67-.86-1.28-1.6-1.84-.75-.56-1.72-1.08-2.93-1.56-1.2-.48-2.66-1.01-4.37-1.6-2.03-.64-4.02-1.35-5.97-2.12-1.95-.77-3.69-1.8-5.21-3.09-1.52-1.28-2.75-2.9-3.69-4.85-.94-1.95-1.4-4.42-1.4-7.41s.49-5.7,1.48-8.14c.99-2.43,2.38-4.52,4.17-6.25,1.79-1.74,3.98-3.09,6.57-4.05,2.59-.96,5.49-1.44,8.7-1.44,2.99,0,6.12.41,9.38,1.24,3.26.83,6.38,2.04,9.38,3.65l-6.25,12.26Z"/><path class="cls-2" d="m442.23,17.24c-1.71-1.39-3.42-2.42-5.13-3.09-1.71-.67-3.37-1-4.97-1-2.03,0-3.69.48-4.97,1.44s-1.92,2.22-1.92,3.77c0,1.07.32,1.95.96,2.65.64.7,1.48,1.3,2.53,1.8,1.04.51,2.22.95,3.53,1.32,1.31.38,2.61.78,3.89,1.2,5.13,1.71,8.88,4,11.26,6.85,2.38,2.86,3.57,6.59,3.57,11.18,0,3.1-.52,5.91-1.56,8.42-1.04,2.51-2.57,4.66-4.57,6.45-2,1.79-4.46,3.18-7.38,4.17-2.91.99-6.21,1.48-9.9,1.48-7.64,0-14.72-2.27-21.24-6.81l6.73-12.67c2.35,2.08,4.67,3.63,6.97,4.65,2.3,1.02,4.57,1.52,6.81,1.52,2.56,0,4.47-.59,5.73-1.76,1.26-1.17,1.88-2.51,1.88-4.01,0-.91-.16-1.7-.48-2.36-.32-.67-.86-1.28-1.6-1.84-.75-.56-1.72-1.08-2.93-1.56-1.2-.48-2.66-1.01-4.37-1.6-2.03-.64-4.02-1.35-5.97-2.12-1.95-.77-3.69-1.8-5.21-3.09-1.52-1.28-2.75-2.9-3.69-4.85-.94-1.95-1.4-4.42-1.4-7.41s.49-5.7,1.48-8.14c.99-2.43,2.38-4.52,4.17-6.25,1.79-1.74,3.98-3.09,6.57-4.05,2.59-.96,5.49-1.44,8.7-1.44,2.99,0,6.12.41,9.38,1.24,3.26.83,6.38,2.04,9.38,3.65l-6.25,12.26Z"/></g></svg>